<mxfile host="65bd71144e">
    <diagram id="ShO7q3t4R8ToIVqjYavh" name="Seite-1">
        <mxGraphModel dx="1022" dy="800" grid="1" gridSize="10" guides="1" tooltips="1" connect="1" arrows="1" fold="1" page="1" pageScale="1" pageWidth="2336" pageHeight="1654" math="0" shadow="0">
            <root>
                <mxCell id="0"/>
                <mxCell id="1" parent="0"/>
                <mxCell id="2" value="Backend" style="rounded=0;whiteSpace=wrap;html=1;fillColor=#d5e8d4;strokeColor=#82b366;gradientColor=#97d077;align=left;verticalAlign=top;fontStyle=1;fontSize=18;" parent="1" vertex="1">
                    <mxGeometry x="30" y="40" width="1450" height="1560" as="geometry"/>
                </mxCell>
                <mxCell id="280" value="&amp;nbsp; &amp;nbsp;UI-Resolver-Layer" style="rounded=1;whiteSpace=wrap;html=1;fillColor=#f5f5f5;strokeColor=#666666;arcSize=5;fontColor=#333333;align=left;fontStyle=1;verticalAlign=top;fontSize=16;" vertex="1" parent="1">
                    <mxGeometry x="40" y="80" width="1180" height="610" as="geometry"/>
                </mxCell>
                <mxCell id="282" style="edgeStyle=none;html=1;entryX=0.5;entryY=0;entryDx=0;entryDy=0;fontSize=16;startArrow=classic;startFill=1;" edge="1" parent="1" source="279" target="213">
                    <mxGeometry relative="1" as="geometry"/>
                </mxCell>
                <mxCell id="285" style="edgeStyle=none;html=1;entryX=0.525;entryY=1.002;entryDx=0;entryDy=0;fontSize=16;startArrow=classic;startFill=1;exitX=0.434;exitY=-0.005;exitDx=0;exitDy=0;exitPerimeter=0;entryPerimeter=0;" edge="1" parent="1" source="279" target="280">
                    <mxGeometry relative="1" as="geometry"/>
                </mxCell>
                <mxCell id="279" value="" style="rounded=1;whiteSpace=wrap;html=1;fillColor=#dae8fc;strokeColor=#6c8ebf;arcSize=5;" vertex="1" parent="1">
                    <mxGeometry x="40" y="720" width="1430" height="435" as="geometry"/>
                </mxCell>
                <mxCell id="214" value="DataBase" style="rounded=0;whiteSpace=wrap;html=1;fillColor=#e1d5e7;strokeColor=#9673a6;align=left;fontSize=18;verticalAlign=bottom;opacity=60;" parent="1" vertex="1">
                    <mxGeometry x="460" y="1490" width="940" height="310" as="geometry"/>
                </mxCell>
                <mxCell id="213" value="&amp;nbsp; &amp;nbsp; DataAccess-Layer" style="rounded=1;whiteSpace=wrap;html=1;fillColor=#d5e8d4;strokeColor=#82b366;fontStyle=1;align=left;verticalAlign=top;fontSize=18;arcSize=8;" parent="1" vertex="1">
                    <mxGeometry x="40" y="1196.75" width="1430" height="273.25" as="geometry"/>
                </mxCell>
                <mxCell id="73" value="server" style="shape=folder;fontStyle=1;spacingTop=10;tabWidth=40;tabHeight=14;tabPosition=left;html=1;align=left;verticalAlign=top;fillColor=#f5f5f5;gradientColor=#b3b3b3;strokeColor=#666666;" parent="1" vertex="1">
                    <mxGeometry x="65" y="755" width="145" height="80" as="geometry"/>
                </mxCell>
                <mxCell id="74" value="context" style="html=1;fillColor=#dae8fc;gradientColor=#7ea6e0;strokeColor=#6c8ebf;" parent="1" vertex="1">
                    <mxGeometry x="72.5" y="795" width="60" height="30" as="geometry"/>
                </mxCell>
                <mxCell id="75" value="logger" style="html=1;fillColor=#dae8fc;gradientColor=#7ea6e0;strokeColor=#6c8ebf;" parent="1" vertex="1">
                    <mxGeometry x="138.5" y="795" width="60" height="30" as="geometry"/>
                </mxCell>
                <mxCell id="76" value="graphql / model" style="shape=folder;fontStyle=1;spacingTop=10;tabWidth=40;tabHeight=14;tabPosition=left;html=1;align=left;verticalAlign=top;fillColor=#f5f5f5;gradientColor=#b3b3b3;strokeColor=#666666;" parent="1" vertex="1">
                    <mxGeometry x="1050" y="745" width="335" height="240" as="geometry"/>
                </mxCell>
                <mxCell id="77" value="auth" style="shape=folder;fontStyle=1;spacingTop=10;tabWidth=40;tabHeight=14;tabPosition=left;html=1;align=left;verticalAlign=top;fillColor=#f5f5f5;gradientColor=#b3b3b3;strokeColor=#666666;" parent="1" vertex="1">
                    <mxGeometry x="65" y="845" width="145" height="80" as="geometry"/>
                </mxCell>
                <mxCell id="78" value="RIGHTS" style="html=1;fillColor=#dae8fc;gradientColor=#7ea6e0;strokeColor=#6c8ebf;" parent="1" vertex="1">
                    <mxGeometry x="72.5" y="885" width="60" height="30" as="geometry"/>
                </mxCell>
                <mxCell id="79" value="repository" style="shape=folder;fontStyle=1;spacingTop=10;tabWidth=40;tabHeight=14;tabPosition=left;html=1;align=left;verticalAlign=top;fillColor=#f5f5f5;gradientColor=#b3b3b3;strokeColor=#666666;fontSize=16;" parent="1" vertex="1">
                    <mxGeometry x="990" y="1370" width="300.62" height="90" as="geometry"/>
                </mxCell>
                <mxCell id="81" value="arg" style="shape=folder;fontStyle=1;spacingTop=10;tabWidth=40;tabHeight=14;tabPosition=left;html=1;align=left;verticalAlign=top;fillColor=#f5f5f5;gradientColor=#b3b3b3;strokeColor=#666666;" parent="1" vertex="1">
                    <mxGeometry x="690" y="750" width="340" height="235" as="geometry"/>
                </mxCell>
                <mxCell id="82" value="AdminCreate&lt;br&gt;ContributionArgs" style="html=1;fillColor=#dae8fc;gradientColor=#7ea6e0;strokeColor=#6c8ebf;" parent="1" vertex="1">
                    <mxGeometry x="700" y="785" width="100" height="30" as="geometry"/>
                </mxCell>
                <mxCell id="83" value="AdminUpdate&lt;br&gt;ContributionArgs" style="html=1;fillColor=#dae8fc;gradientColor=#7ea6e0;strokeColor=#6c8ebf;" parent="1" vertex="1">
                    <mxGeometry x="807.5" y="785" width="100" height="30" as="geometry"/>
                </mxCell>
                <mxCell id="84" value="SearchUsersArgs" style="html=1;fillColor=#dae8fc;gradientColor=#7ea6e0;strokeColor=#6c8ebf;" parent="1" vertex="1">
                    <mxGeometry x="700" y="825" width="100" height="30" as="geometry"/>
                </mxCell>
                <mxCell id="85" value="Contribution&lt;br&gt;LinkArgs" style="html=1;fillColor=#dae8fc;gradientColor=#7ea6e0;strokeColor=#6c8ebf;" parent="1" vertex="1">
                    <mxGeometry x="807.5" y="825" width="100" height="30" as="geometry"/>
                </mxCell>
                <mxCell id="86" value="entity" style="shape=folder;fontStyle=1;spacingTop=10;tabWidth=40;tabHeight=14;tabPosition=left;html=1;align=left;verticalAlign=top;fillColor=#f5f5f5;gradientColor=#b3b3b3;strokeColor=#666666;fontSize=16;" parent="1" vertex="1">
                    <mxGeometry x="480" y="1502.75" width="908.75" height="80.5" as="geometry"/>
                </mxCell>
                <mxCell id="87" value="Transaction" style="html=1;fillColor=#dae8fc;gradientColor=#7ea6e0;strokeColor=#6c8ebf;" parent="1" vertex="1">
                    <mxGeometry x="1125" y="1541.75" width="80" height="30" as="geometry"/>
                </mxCell>
                <mxCell id="88" value="Contribution&lt;br&gt;Link" style="html=1;fillColor=#dae8fc;gradientColor=#7ea6e0;strokeColor=#6c8ebf;" parent="1" vertex="1">
                    <mxGeometry x="510" y="1541.75" width="115" height="30" as="geometry"/>
                </mxCell>
                <mxCell id="89" value="Transaction&lt;br&gt;Link" style="html=1;fillColor=#dae8fc;gradientColor=#7ea6e0;strokeColor=#6c8ebf;" parent="1" vertex="1">
                    <mxGeometry x="995" y="1541.75" width="120" height="30" as="geometry"/>
                </mxCell>
                <mxCell id="267" style="edgeStyle=none;html=1;entryX=0.5;entryY=0;entryDx=0;entryDy=0;startArrow=classic;startFill=1;" edge="1" parent="1" source="90" target="87">
                    <mxGeometry relative="1" as="geometry"/>
                </mxCell>
                <mxCell id="90" value="Transaction" style="html=1;fillColor=#dae8fc;gradientColor=#7ea6e0;strokeColor=#6c8ebf;" parent="1" vertex="1">
                    <mxGeometry x="1128.1200000000001" y="1420" width="70" height="30" as="geometry"/>
                </mxCell>
                <mxCell id="91" value="util" style="shape=folder;fontStyle=1;spacingTop=10;tabWidth=40;tabHeight=14;tabPosition=left;html=1;align=left;verticalAlign=top;fillColor=#f5f5f5;gradientColor=#b3b3b3;strokeColor=#666666;" parent="1" vertex="1">
                    <mxGeometry x="350" y="755" width="242.5" height="120" as="geometry"/>
                </mxCell>
                <mxCell id="92" value="decay" style="html=1;fillColor=#dae8fc;gradientColor=#7ea6e0;strokeColor=#6c8ebf;" parent="1" vertex="1">
                    <mxGeometry x="360" y="795" width="60" height="30" as="geometry"/>
                </mxCell>
                <mxCell id="93" value="Contribution" style="html=1;fillColor=#dae8fc;gradientColor=#7ea6e0;strokeColor=#6c8ebf;" parent="1" vertex="1">
                    <mxGeometry x="795" y="1541.75" width="90" height="30" as="geometry"/>
                </mxCell>
                <mxCell id="94" value="hasElopage&lt;br&gt;Buys" style="html=1;fillColor=#dae8fc;gradientColor=#7ea6e0;strokeColor=#6c8ebf;" parent="1" vertex="1">
                    <mxGeometry x="430" y="795" width="80" height="30" as="geometry"/>
                </mxCell>
                <mxCell id="96" value="User" style="html=1;fillColor=#dae8fc;gradientColor=#7ea6e0;strokeColor=#6c8ebf;" parent="1" vertex="1">
                    <mxGeometry x="1211.25" y="1541.75" width="53.75" height="30" as="geometry"/>
                </mxCell>
                <mxCell id="97" value="enum" style="shape=folder;fontStyle=1;spacingTop=10;tabWidth=40;tabHeight=14;tabPosition=left;html=1;align=left;verticalAlign=top;fillColor=#f5f5f5;gradientColor=#b3b3b3;strokeColor=#666666;" parent="1" vertex="1">
                    <mxGeometry x="765" y="992.5" width="265" height="120" as="geometry"/>
                </mxCell>
                <mxCell id="98" value="Transaction&lt;br&gt;TypeId" style="html=1;fillColor=#dae8fc;gradientColor=#7ea6e0;strokeColor=#6c8ebf;" parent="1" vertex="1">
                    <mxGeometry x="775" y="1032.5" width="75" height="30" as="geometry"/>
                </mxCell>
                <mxCell id="99" value="Contribution&lt;br&gt;Type" style="html=1;fillColor=#dae8fc;gradientColor=#7ea6e0;strokeColor=#6c8ebf;" parent="1" vertex="1">
                    <mxGeometry x="775" y="1072.5" width="75" height="30" as="geometry"/>
                </mxCell>
                <mxCell id="100" value="Contribution&lt;br&gt;Status" style="html=1;fillColor=#dae8fc;gradientColor=#7ea6e0;strokeColor=#6c8ebf;" parent="1" vertex="1">
                    <mxGeometry x="855" y="1032.5" width="75" height="30" as="geometry"/>
                </mxCell>
                <mxCell id="101" value="Paginated" style="html=1;fillColor=#dae8fc;gradientColor=#7ea6e0;strokeColor=#6c8ebf;" parent="1" vertex="1">
                    <mxGeometry x="700" y="865" width="100" height="30" as="geometry"/>
                </mxCell>
                <mxCell id="102" value="Transaction&lt;br&gt;LinkFilters" style="html=1;fillColor=#dae8fc;gradientColor=#7ea6e0;strokeColor=#6c8ebf;" parent="1" vertex="1">
                    <mxGeometry x="807.5" y="865" width="100" height="30" as="geometry"/>
                </mxCell>
                <mxCell id="103" value="Order" style="html=1;fillColor=#dae8fc;gradientColor=#7ea6e0;strokeColor=#6c8ebf;" parent="1" vertex="1">
                    <mxGeometry x="855" y="1072.5" width="75" height="30" as="geometry"/>
                </mxCell>
                <mxCell id="104" value="community&lt;br&gt;User" style="html=1;fillColor=#dae8fc;gradientColor=#7ea6e0;strokeColor=#6c8ebf;" parent="1" vertex="1">
                    <mxGeometry x="520" y="795" width="60" height="30" as="geometry"/>
                </mxCell>
                <mxCell id="105" value="mailer" style="shape=folder;fontStyle=1;spacingTop=10;tabWidth=40;tabHeight=14;tabPosition=left;html=1;align=left;verticalAlign=top;fillColor=#f5f5f5;gradientColor=#b3b3b3;strokeColor=#666666;" parent="1" vertex="1">
                    <mxGeometry x="322.5" y="992.5" width="230" height="112.5" as="geometry"/>
                </mxCell>
                <mxCell id="106" value="sendAccount&lt;br&gt;ActivationEmail" style="html=1;fillColor=#dae8fc;gradientColor=#7ea6e0;strokeColor=#6c8ebf;" parent="1" vertex="1">
                    <mxGeometry x="332.5" y="1022.5" width="95" height="30" as="geometry"/>
                </mxCell>
                <mxCell id="107" value="config" style="shape=folder;fontStyle=1;spacingTop=10;tabWidth=40;tabHeight=14;tabPosition=left;html=1;align=left;verticalAlign=top;fillColor=#f5f5f5;gradientColor=#b3b3b3;strokeColor=#666666;" parent="1" vertex="1">
                    <mxGeometry x="65" y="935" width="75" height="80" as="geometry"/>
                </mxCell>
                <mxCell id="108" value="CONFIG" style="html=1;fillColor=#dae8fc;gradientColor=#7ea6e0;strokeColor=#6c8ebf;" parent="1" vertex="1">
                    <mxGeometry x="75" y="975" width="55" height="30" as="geometry"/>
                </mxCell>
                <mxCell id="109" value="creations" style="html=1;fillColor=#dae8fc;gradientColor=#7ea6e0;strokeColor=#6c8ebf;" parent="1" vertex="1">
                    <mxGeometry x="520" y="835" width="60" height="30" as="geometry"/>
                </mxCell>
                <mxCell id="110" value="const" style="shape=folder;fontStyle=1;spacingTop=10;tabWidth=40;tabHeight=14;tabPosition=left;html=1;align=left;verticalAlign=top;fillColor=#f5f5f5;gradientColor=#b3b3b3;strokeColor=#666666;" parent="1" vertex="1">
                    <mxGeometry x="65" y="1025" width="65" height="80" as="geometry"/>
                </mxCell>
                <mxCell id="111" value="const" style="html=1;fillColor=#dae8fc;gradientColor=#7ea6e0;strokeColor=#6c8ebf;" parent="1" vertex="1">
                    <mxGeometry x="75" y="1065" width="45" height="30" as="geometry"/>
                </mxCell>
                <mxCell id="112" value="Contribution&lt;br&gt;Message" style="html=1;fillColor=#dae8fc;gradientColor=#7ea6e0;strokeColor=#6c8ebf;" parent="1" vertex="1">
                    <mxGeometry x="635.63" y="1541.75" width="151.25" height="30" as="geometry"/>
                </mxCell>
                <mxCell id="113" value="Contribution&lt;br&gt;MessageArgs" style="html=1;fillColor=#dae8fc;gradientColor=#7ea6e0;strokeColor=#6c8ebf;" parent="1" vertex="1">
                    <mxGeometry x="920" y="785" width="100" height="30" as="geometry"/>
                </mxCell>
                <mxCell id="114" value="MessageType" style="html=1;fillColor=#dae8fc;gradientColor=#7ea6e0;strokeColor=#6c8ebf;" parent="1" vertex="1">
                    <mxGeometry x="935" y="1032.5" width="85" height="30" as="geometry"/>
                </mxCell>
                <mxCell id="115" value="type-graphql" style="shape=folder;fontStyle=1;spacingTop=10;tabWidth=40;tabHeight=14;tabPosition=left;html=1;align=left;verticalAlign=top;fillColor=#f5f5f5;gradientColor=#b3b3b3;strokeColor=#666666;" parent="1" vertex="1">
                    <mxGeometry x="1050" y="1009.25" width="330" height="103.25" as="geometry"/>
                </mxCell>
                <mxCell id="283" style="edgeStyle=none;html=1;entryX=0;entryY=0;entryDx=0;entryDy=47.25;entryPerimeter=0;fontSize=16;startArrow=classic;startFill=1;exitX=0;exitY=0;exitDx=70;exitDy=50.625;exitPerimeter=0;" edge="1" parent="1" source="116" target="86">
                    <mxGeometry relative="1" as="geometry">
                        <mxPoint x="430" y="1557" as="sourcePoint"/>
                    </mxGeometry>
                </mxCell>
                <mxCell id="116" value="dbTools" style="shape=folder;fontStyle=1;spacingTop=10;tabWidth=40;tabHeight=14;tabPosition=left;html=1;align=left;verticalAlign=top;fillColor=#f5f5f5;gradientColor=#b3b3b3;strokeColor=#666666;" parent="1" vertex="1">
                    <mxGeometry x="357.5" y="1502.75" width="70" height="77.25" as="geometry"/>
                </mxCell>
                <mxCell id="117" value="typeorm" style="html=1;fillColor=#dae8fc;gradientColor=#7ea6e0;strokeColor=#6c8ebf;" parent="1" vertex="1">
                    <mxGeometry x="362.5" y="1541.75" width="60" height="30" as="geometry"/>
                </mxCell>
                <mxCell id="118" value="Resolver" style="rounded=0;whiteSpace=wrap;html=1;fillColor=#dae8fc;gradientColor=#7ea6e0;strokeColor=#6c8ebf;" parent="1" vertex="1">
                    <mxGeometry x="1061.25" y="1049.75" width="50" height="19.5" as="geometry"/>
                </mxCell>
                <mxCell id="119" value="Query" style="rounded=0;whiteSpace=wrap;html=1;fillColor=#dae8fc;gradientColor=#7ea6e0;strokeColor=#6c8ebf;" parent="1" vertex="1">
                    <mxGeometry x="1120" y="1049.75" width="40" height="19.5" as="geometry"/>
                </mxCell>
                <mxCell id="121" value="Args" style="rounded=0;whiteSpace=wrap;html=1;fillColor=#dae8fc;gradientColor=#7ea6e0;strokeColor=#6c8ebf;" parent="1" vertex="1">
                    <mxGeometry x="1207.5" y="1049.75" width="32.5" height="19.5" as="geometry"/>
                </mxCell>
                <mxCell id="122" value="Authorized" style="rounded=0;whiteSpace=wrap;html=1;fillColor=#dae8fc;gradientColor=#7ea6e0;strokeColor=#6c8ebf;" parent="1" vertex="1">
                    <mxGeometry x="1250" y="1049.75" width="60" height="19.5" as="geometry"/>
                </mxCell>
                <mxCell id="123" value="Mutation" style="rounded=0;whiteSpace=wrap;html=1;fillColor=#dae8fc;gradientColor=#7ea6e0;strokeColor=#6c8ebf;" parent="1" vertex="1">
                    <mxGeometry x="1315" y="1049.75" width="60" height="19.5" as="geometry"/>
                </mxCell>
                <mxCell id="124" value="Ctx" style="rounded=0;whiteSpace=wrap;html=1;fillColor=#dae8fc;gradientColor=#7ea6e0;strokeColor=#6c8ebf;" parent="1" vertex="1">
                    <mxGeometry x="1061.25" y="1078.25" width="30" height="22.5" as="geometry"/>
                </mxCell>
                <mxCell id="125" value="fs" style="shape=folder;fontStyle=1;spacingTop=10;tabWidth=40;tabHeight=14;tabPosition=left;html=1;align=left;verticalAlign=top;fillColor=#f5f5f5;gradientColor=#b3b3b3;strokeColor=#666666;" parent="1" vertex="1">
                    <mxGeometry x="56.25" y="1360" width="68.75" height="71.5" as="geometry"/>
                </mxCell>
                <mxCell id="128" value="CreateUserArgs" style="html=1;fillColor=#dae8fc;gradientColor=#7ea6e0;strokeColor=#6c8ebf;" parent="1" vertex="1">
                    <mxGeometry x="920" y="825" width="100" height="30" as="geometry"/>
                </mxCell>
                <mxCell id="129" value="Unsecure&lt;br&gt;LoginArgs" style="html=1;fillColor=#dae8fc;gradientColor=#7ea6e0;strokeColor=#6c8ebf;" parent="1" vertex="1">
                    <mxGeometry x="920" y="865" width="100" height="30" as="geometry"/>
                </mxCell>
                <mxCell id="130" value="UpdateUser&lt;br&gt;InfosArgs" style="html=1;fillColor=#dae8fc;gradientColor=#7ea6e0;strokeColor=#6c8ebf;" parent="1" vertex="1">
                    <mxGeometry x="700" y="905" width="100" height="30" as="geometry"/>
                </mxCell>
                <mxCell id="131" value="middleware" style="shape=folder;fontStyle=1;spacingTop=10;tabWidth=40;tabHeight=14;tabPosition=left;html=1;align=left;verticalAlign=top;fillColor=#f5f5f5;gradientColor=#b3b3b3;strokeColor=#666666;" parent="1" vertex="1">
                    <mxGeometry x="222.5" y="755" width="115" height="80" as="geometry"/>
                </mxCell>
                <mxCell id="132" value="klicktipp&lt;br&gt;Middleware" style="html=1;fillColor=#dae8fc;gradientColor=#7ea6e0;strokeColor=#6c8ebf;" parent="1" vertex="1">
                    <mxGeometry x="232.5" y="795" width="95" height="30" as="geometry"/>
                </mxCell>
                <mxCell id="133" value="OptInType" style="html=1;fillColor=#dae8fc;gradientColor=#7ea6e0;strokeColor=#6c8ebf;" parent="1" vertex="1">
                    <mxGeometry x="935" y="1072.5" width="85" height="30" as="geometry"/>
                </mxCell>
                <mxCell id="134" value="sendReset&lt;br&gt;PasswordEmail" style="html=1;fillColor=#dae8fc;gradientColor=#7ea6e0;strokeColor=#6c8ebf;" parent="1" vertex="1">
                    <mxGeometry x="332.5" y="1062.5" width="95" height="30" as="geometry"/>
                </mxCell>
                <mxCell id="135" value="sendAccountMulti&lt;br&gt;RegistrationEmail" style="html=1;fillColor=#dae8fc;gradientColor=#7ea6e0;strokeColor=#6c8ebf;" parent="1" vertex="1">
                    <mxGeometry x="435" y="1022.5" width="107.5" height="30" as="geometry"/>
                </mxCell>
                <mxCell id="136" value="event" style="shape=folder;fontStyle=1;spacingTop=10;tabWidth=40;tabHeight=14;tabPosition=left;html=1;align=left;verticalAlign=top;fillColor=#f5f5f5;gradientColor=#b3b3b3;strokeColor=#666666;" parent="1" vertex="1">
                    <mxGeometry x="237.5" y="880" width="160" height="80" as="geometry"/>
                </mxCell>
                <mxCell id="137" value="EventProtocol&lt;br&gt;Emitter" style="html=1;fillColor=#dae8fc;gradientColor=#7ea6e0;strokeColor=#6c8ebf;" parent="1" vertex="1">
                    <mxGeometry x="247.5" y="920" width="80" height="30" as="geometry"/>
                </mxCell>
                <mxCell id="138" value="Event" style="html=1;fillColor=#dae8fc;gradientColor=#7ea6e0;strokeColor=#6c8ebf;" parent="1" vertex="1">
                    <mxGeometry x="337.5" y="920" width="55" height="30" as="geometry"/>
                </mxCell>
                <mxCell id="140" value="decimal" style="shape=folder;fontStyle=1;spacingTop=10;tabWidth=40;tabHeight=14;tabPosition=left;html=1;align=left;verticalAlign=top;fillColor=#f5f5f5;gradientColor=#b3b3b3;strokeColor=#666666;" parent="1" vertex="1">
                    <mxGeometry x="151" y="935" width="71.5" height="80" as="geometry"/>
                </mxCell>
                <mxCell id="141" value="js-light" style="html=1;fillColor=#dae8fc;gradientColor=#7ea6e0;strokeColor=#6c8ebf;" parent="1" vertex="1">
                    <mxGeometry x="157.5" y="975" width="60" height="30" as="geometry"/>
                </mxCell>
                <mxCell id="142" value="UserAdmin" style="html=1;fillColor=#f8cecc;gradientColor=#ea6b66;strokeColor=#b85450;" parent="1" vertex="1">
                    <mxGeometry x="1137.5" y="787.5" width="70" height="30" as="geometry"/>
                </mxCell>
                <mxCell id="143" value="Unconfirmed&lt;br&gt;Contribution" style="html=1;fillColor=#dae8fc;gradientColor=#7ea6e0;strokeColor=#6c8ebf;" parent="1" vertex="1">
                    <mxGeometry x="1300" y="787.5" width="75" height="30" as="geometry"/>
                </mxCell>
                <mxCell id="144" value="AdminCreate&lt;br&gt;Contributions" style="html=1;fillColor=#dae8fc;gradientColor=#7ea6e0;strokeColor=#6c8ebf;" parent="1" vertex="1">
                    <mxGeometry x="1055" y="832.5" width="75" height="30" as="geometry"/>
                </mxCell>
                <mxCell id="145" value="AdminUpdate&lt;br&gt;Contribution" style="html=1;fillColor=#dae8fc;gradientColor=#7ea6e0;strokeColor=#6c8ebf;" parent="1" vertex="1">
                    <mxGeometry x="1135" y="832.5" width="75" height="30" as="geometry"/>
                </mxCell>
                <mxCell id="146" value="Contribution&lt;br&gt;Link" style="html=1;fillColor=#f8cecc;gradientColor=#ea6b66;strokeColor=#b85450;" parent="1" vertex="1">
                    <mxGeometry x="1055" y="872.5" width="75" height="30" as="geometry"/>
                </mxCell>
                <mxCell id="147" value="Contribution&lt;br&gt;LinkList" style="html=1;fillColor=#dae8fc;gradientColor=#7ea6e0;strokeColor=#6c8ebf;" parent="1" vertex="1">
                    <mxGeometry x="1135" y="872.5" width="75" height="30" as="geometry"/>
                </mxCell>
                <mxCell id="148" value="Transaction" style="html=1;fillColor=#dae8fc;gradientColor=#7ea6e0;strokeColor=#6c8ebf;" parent="1" vertex="1">
                    <mxGeometry x="1215" y="832.5" width="75" height="30" as="geometry"/>
                </mxCell>
                <mxCell id="149" value="Transaction&lt;br&gt;Link" style="html=1;fillColor=#dae8fc;gradientColor=#7ea6e0;strokeColor=#6c8ebf;" parent="1" vertex="1">
                    <mxGeometry x="1215" y="872.5" width="75" height="30" as="geometry"/>
                </mxCell>
                <mxCell id="150" value="User" style="html=1;fillColor=#dae8fc;gradientColor=#7ea6e0;strokeColor=#6c8ebf;" parent="1" vertex="1">
                    <mxGeometry x="1055" y="787.5" width="75" height="30" as="geometry"/>
                </mxCell>
                <mxCell id="151" value="Decay" style="html=1;fillColor=#dae8fc;gradientColor=#7ea6e0;strokeColor=#6c8ebf;" parent="1" vertex="1">
                    <mxGeometry x="1300" y="832.5" width="75" height="30" as="geometry"/>
                </mxCell>
                <mxCell id="152" value="Contribution&lt;br&gt;Message" style="html=1;fillColor=#dae8fc;gradientColor=#7ea6e0;strokeColor=#6c8ebf;" parent="1" vertex="1">
                    <mxGeometry x="1300" y="872.5" width="75" height="30" as="geometry"/>
                </mxCell>
                <mxCell id="153" value="AdminUser" style="html=1;fillColor=#f8cecc;gradientColor=#ea6b66;strokeColor=#b85450;" parent="1" vertex="1">
                    <mxGeometry x="1217.5" y="788.75" width="70" height="30" as="geometry"/>
                </mxCell>
                <mxCell id="154" value="sendTransaction&lt;br&gt;ReceivedEmail" style="html=1;fillColor=#dae8fc;gradientColor=#7ea6e0;strokeColor=#6c8ebf;" parent="1" vertex="1">
                    <mxGeometry x="435" y="1062.5" width="107.5" height="30" as="geometry"/>
                </mxCell>
                <mxCell id="155" value="Transaction&lt;br&gt;SendArgs" style="html=1;fillColor=#dae8fc;gradientColor=#7ea6e0;strokeColor=#6c8ebf;" parent="1" vertex="1">
                    <mxGeometry x="807.5" y="905" width="100" height="30" as="geometry"/>
                </mxCell>
                <mxCell id="266" style="edgeStyle=none;html=1;entryX=0.5;entryY=0;entryDx=0;entryDy=0;startArrow=classic;startFill=1;" edge="1" parent="1" source="156" target="89">
                    <mxGeometry relative="1" as="geometry"/>
                </mxCell>
                <mxCell id="156" value="Transaction&lt;br&gt;Link" style="html=1;fillColor=#dae8fc;gradientColor=#7ea6e0;strokeColor=#6c8ebf;" parent="1" vertex="1">
                    <mxGeometry x="1000" y="1420" width="115" height="30" as="geometry"/>
                </mxCell>
                <mxCell id="157" value="validate" style="html=1;fillColor=#dae8fc;gradientColor=#7ea6e0;strokeColor=#6c8ebf;" parent="1" vertex="1">
                    <mxGeometry x="360" y="835" width="60" height="30" as="geometry"/>
                </mxCell>
                <mxCell id="158" value="virtual&lt;br&gt;Transactions" style="html=1;fillColor=#dae8fc;gradientColor=#7ea6e0;strokeColor=#6c8ebf;" parent="1" vertex="1">
                    <mxGeometry x="430" y="835" width="80" height="30" as="geometry"/>
                </mxCell>
                <mxCell id="159" value="Balance" style="html=1;fillColor=#f8cecc;gradientColor=#ea6b66;strokeColor=#b85450;" parent="1" vertex="1">
                    <mxGeometry x="1055" y="912.5" width="75" height="30" as="geometry"/>
                </mxCell>
                <mxCell id="160" value="GdtEnrtyList" style="html=1;fillColor=#dae8fc;gradientColor=#7ea6e0;strokeColor=#6c8ebf;" parent="1" vertex="1">
                    <mxGeometry x="1135" y="912.5" width="75" height="30" as="geometry"/>
                </mxCell>
                <mxCell id="161" value="apis" style="shape=folder;fontStyle=1;spacingTop=10;tabWidth=40;tabHeight=14;tabPosition=left;html=1;align=left;verticalAlign=top;fillColor=#f5f5f5;gradientColor=#b3b3b3;strokeColor=#666666;" parent="1" vertex="1">
                    <mxGeometry x="147.5" y="1025" width="162.5" height="80" as="geometry"/>
                </mxCell>
                <mxCell id="162" value="Klicktipp&lt;br&gt;Controller" style="html=1;fillColor=#dae8fc;gradientColor=#7ea6e0;strokeColor=#6c8ebf;" parent="1" vertex="1">
                    <mxGeometry x="167.5" y="1065" width="60" height="30" as="geometry"/>
                </mxCell>
                <mxCell id="163" value="Http&lt;br&gt;Request" style="html=1;fillColor=#dae8fc;gradientColor=#7ea6e0;strokeColor=#6c8ebf;" parent="1" vertex="1">
                    <mxGeometry x="237.5" y="1065" width="60" height="30" as="geometry"/>
                </mxCell>
                <mxCell id="164" value="Community" style="html=1;fillColor=#dae8fc;gradientColor=#7ea6e0;strokeColor=#6c8ebf;" parent="1" vertex="1">
                    <mxGeometry x="1215" y="912.5" width="75" height="30" as="geometry"/>
                </mxCell>
                <mxCell id="165" value="Subscribe&lt;br&gt;NewsletterArgs" style="html=1;fillColor=#dae8fc;gradientColor=#7ea6e0;strokeColor=#6c8ebf;" parent="1" vertex="1">
                    <mxGeometry x="917.5" y="905" width="100" height="30" as="geometry"/>
                </mxCell>
                <mxCell id="166" value="Community&lt;br&gt;Statistics" style="html=1;fillColor=#dae8fc;gradientColor=#7ea6e0;strokeColor=#6c8ebf;" parent="1" vertex="1">
                    <mxGeometry x="1300" y="912.5" width="75" height="30" as="geometry"/>
                </mxCell>
                <mxCell id="169" value="Transaction&lt;br&gt;LinkArgs" style="html=1;fillColor=#dae8fc;gradientColor=#7ea6e0;strokeColor=#6c8ebf;" parent="1" vertex="1">
                    <mxGeometry x="700" y="944.5" width="100" height="30" as="geometry"/>
                </mxCell>
                <mxCell id="170" value="uuid" style="shape=folder;fontStyle=1;spacingTop=10;tabWidth=40;tabHeight=14;tabPosition=left;html=1;align=left;verticalAlign=top;fillColor=#f5f5f5;gradientColor=#b3b3b3;strokeColor=#666666;" parent="1" vertex="1">
                    <mxGeometry x="240" y="1360" width="77.5" height="71.5" as="geometry"/>
                </mxCell>
                <mxCell id="171" value="v4" style="html=1;fillColor=#dae8fc;gradientColor=#7ea6e0;strokeColor=#6c8ebf;" parent="1" vertex="1">
                    <mxGeometry x="250" y="1394.5" width="60" height="30" as="geometry"/>
                </mxCell>
                <mxCell id="172" value="crypto" style="shape=folder;fontStyle=1;spacingTop=10;tabWidth=40;tabHeight=14;tabPosition=left;html=1;align=left;verticalAlign=top;fillColor=#f5f5f5;gradientColor=#b3b3b3;strokeColor=#666666;" parent="1" vertex="1">
                    <mxGeometry x="135" y="1360" width="95" height="71.5" as="geometry"/>
                </mxCell>
                <mxCell id="173" value="randomBytes" style="html=1;fillColor=#dae8fc;gradientColor=#7ea6e0;strokeColor=#6c8ebf;" parent="1" vertex="1">
                    <mxGeometry x="145" y="1394.5" width="77.5" height="30" as="geometry"/>
                </mxCell>
                <mxCell id="176" value="JWT" style="html=1;fillColor=#dae8fc;gradientColor=#7ea6e0;strokeColor=#6c8ebf;" parent="1" vertex="1">
                    <mxGeometry x="137.5" y="885" width="60" height="30" as="geometry"/>
                </mxCell>
                <mxCell id="181" value="UserAdmin" style="html=1;fillColor=#dae8fc;gradientColor=#7ea6e0;strokeColor=#6c8ebf;" parent="1" vertex="1">
                    <mxGeometry x="1137.5" y="787.5" width="70" height="30" as="geometry"/>
                </mxCell>
                <mxCell id="182" value="AdminUser" style="html=1;fillColor=#dae8fc;gradientColor=#7ea6e0;strokeColor=#6c8ebf;" parent="1" vertex="1">
                    <mxGeometry x="1217.5" y="788.75" width="70" height="30" as="geometry"/>
                </mxCell>
                <mxCell id="268" style="edgeStyle=none;html=1;entryX=0.5;entryY=0;entryDx=0;entryDy=0;startArrow=classic;startFill=1;" edge="1" parent="1" source="187" target="96">
                    <mxGeometry relative="1" as="geometry"/>
                </mxCell>
                <mxCell id="187" value="User" style="html=1;fillColor=#dae8fc;gradientColor=#7ea6e0;strokeColor=#6c8ebf;" parent="1" vertex="1">
                    <mxGeometry x="1210.6200000000001" y="1420" width="60" height="30" as="geometry"/>
                </mxCell>
                <mxCell id="188" value="fs" style="html=1;fillColor=#dae8fc;gradientColor=#7ea6e0;strokeColor=#6c8ebf;" parent="1" vertex="1">
                    <mxGeometry x="60" y="1396.5" width="60" height="30" as="geometry"/>
                </mxCell>
                <mxCell id="189" value="createUnionType" style="rounded=0;whiteSpace=wrap;html=1;fillColor=#dae8fc;gradientColor=#7ea6e0;strokeColor=#6c8ebf;" parent="1" vertex="1">
                    <mxGeometry x="1250" y="1076" width="100" height="23.75" as="geometry"/>
                </mxCell>
                <mxCell id="190" value="UseMiddleware" style="rounded=0;whiteSpace=wrap;html=1;fillColor=#dae8fc;gradientColor=#7ea6e0;strokeColor=#6c8ebf;" parent="1" vertex="1">
                    <mxGeometry x="1140" y="1076" width="100" height="23.75" as="geometry"/>
                </mxCell>
                <mxCell id="191" value="Int" style="rounded=0;whiteSpace=wrap;html=1;fillColor=#dae8fc;gradientColor=#7ea6e0;strokeColor=#6c8ebf;" parent="1" vertex="1">
                    <mxGeometry x="1100" y="1078.25" width="30" height="21" as="geometry"/>
                </mxCell>
                <mxCell id="192" value="Arg" style="rounded=0;whiteSpace=wrap;html=1;fillColor=#dae8fc;gradientColor=#7ea6e0;strokeColor=#6c8ebf;" parent="1" vertex="1">
                    <mxGeometry x="1167.5" y="1049.75" width="32.5" height="19.5" as="geometry"/>
                </mxCell>
                <mxCell id="193" value="Balance" style="html=1;fillColor=#dae8fc;gradientColor=#7ea6e0;strokeColor=#6c8ebf;" parent="1" vertex="1">
                    <mxGeometry x="1055" y="912.5" width="75" height="30" as="geometry"/>
                </mxCell>
                <mxCell id="194" value="Contribution&lt;br&gt;Link" style="html=1;fillColor=#dae8fc;gradientColor=#7ea6e0;strokeColor=#6c8ebf;" parent="1" vertex="1">
                    <mxGeometry x="1055" y="872.5" width="75" height="30" as="geometry"/>
                </mxCell>
                <mxCell id="195" style="edgeStyle=none;html=1;entryX=-0.009;entryY=0.177;entryDx=0;entryDy=0;exitX=1;exitY=0.5;exitDx=0;exitDy=0;entryPerimeter=0;" parent="1" source="197" target="198" edge="1">
                    <mxGeometry relative="1" as="geometry">
                        <Array as="points"/>
                        <mxPoint x="633.04" y="324" as="targetPoint"/>
                    </mxGeometry>
                </mxCell>
                <mxCell id="196" style="edgeStyle=none;html=1;entryX=0;entryY=0.25;entryDx=0;entryDy=0;exitX=1;exitY=0.25;exitDx=0;exitDy=0;" parent="1" source="197" target="201" edge="1">
                    <mxGeometry relative="1" as="geometry">
                        <Array as="points"/>
                        <mxPoint x="656.5" y="225" as="targetPoint"/>
                    </mxGeometry>
                </mxCell>
                <mxCell id="197" value="&lt;p style=&quot;margin: 0px ; margin-top: 4px ; text-align: center&quot;&gt;&lt;b&gt;AdminResolver&lt;/b&gt;&lt;/p&gt;&lt;hr size=&quot;1&quot;&gt;&lt;p style=&quot;margin: 0px ; margin-left: 4px&quot;&gt;+ searchUsers():&amp;nbsp;SearchUsersResult&lt;/p&gt;&lt;p style=&quot;margin: 0px ; margin-left: 4px&quot;&gt;+&amp;nbsp;setUserRole(): Date | null&lt;/p&gt;&lt;p style=&quot;margin: 0px ; margin-left: 4px&quot;&gt;+&amp;nbsp;deleteUser(): Date | null&lt;/p&gt;&lt;p style=&quot;margin: 0px ; margin-left: 4px&quot;&gt;+&amp;nbsp;unDeleteUser(): Date | null&lt;/p&gt;&lt;p style=&quot;margin: 0px ; margin-left: 4px&quot;&gt;+&amp;nbsp;adminCreateContribution():&amp;nbsp;Decimal[]&lt;/p&gt;&lt;p style=&quot;margin: 0px ; margin-left: 4px&quot;&gt;+&amp;nbsp;adminCreateContributions():&amp;nbsp;AdminCreateContributions&lt;/p&gt;&lt;p style=&quot;margin: 0px ; margin-left: 4px&quot;&gt;+&amp;nbsp;adminUpdateContribution():&amp;nbsp;AdminUpdateContribution&lt;/p&gt;&lt;p style=&quot;margin: 0px ; margin-left: 4px&quot;&gt;+&amp;nbsp;listUnconfirmedContributions():&amp;nbsp;UnconfirmedContribution[]&lt;/p&gt;&lt;p style=&quot;margin: 0px ; margin-left: 4px&quot;&gt;+&amp;nbsp;adminDeleteContribution():&amp;nbsp;boolean&lt;/p&gt;&lt;p style=&quot;margin: 0px ; margin-left: 4px&quot;&gt;+&amp;nbsp;confirmContribution():&amp;nbsp;boolean&lt;/p&gt;&lt;p style=&quot;margin: 0px ; margin-left: 4px&quot;&gt;+&amp;nbsp;creationTransactionList():&amp;nbsp;Transaction[]&lt;/p&gt;&lt;p style=&quot;margin: 0px ; margin-left: 4px&quot;&gt;+&amp;nbsp;sendActivationEmail():&amp;nbsp;boolean&lt;/p&gt;&lt;p style=&quot;margin: 0px ; margin-left: 4px&quot;&gt;+&amp;nbsp;listTransactionLinksAdmin():&amp;nbsp;TransactionLinkResult&lt;/p&gt;&lt;p style=&quot;margin: 0px ; margin-left: 4px&quot;&gt;+&amp;nbsp;createContributionLink():&amp;nbsp;ContributionLink&lt;/p&gt;&lt;p style=&quot;margin: 0px ; margin-left: 4px&quot;&gt;+&amp;nbsp;listContributionLinks():&amp;nbsp;ContributionLinkList&lt;/p&gt;&lt;p style=&quot;margin: 0px ; margin-left: 4px&quot;&gt;+&amp;nbsp;deleteContributionLink():&amp;nbsp;Date | null&lt;/p&gt;&lt;p style=&quot;margin: 0px ; margin-left: 4px&quot;&gt;+&amp;nbsp;updateContributionLink():&amp;nbsp;ContributionLink&lt;/p&gt;&lt;p style=&quot;margin: 0px ; margin-left: 4px&quot;&gt;+&amp;nbsp;adminCreateContributionMessage():&amp;nbsp;ContributionMessage&lt;/p&gt;" style="verticalAlign=top;align=left;overflow=fill;fontSize=12;fontFamily=Helvetica;html=1;" parent="1" vertex="1">
                    <mxGeometry x="65" y="110" width="335" height="300" as="geometry"/>
                </mxCell>
                <mxCell id="198" value="&lt;p style=&quot;margin: 0px ; margin-top: 4px ; text-align: center&quot;&gt;&lt;b&gt;UserResolver&lt;/b&gt;&lt;/p&gt;&lt;hr size=&quot;1&quot;&gt;&lt;p style=&quot;margin: 0px ; margin-left: 4px&quot;&gt;+ checkOptInCode:&amp;nbsp;LoginEmailOptIn&lt;/p&gt;&lt;p style=&quot;margin: 0px ; margin-left: 4px&quot;&gt;+&amp;nbsp;activationLink: string&lt;/p&gt;&lt;p style=&quot;margin: 0px ; margin-left: 4px&quot;&gt;+&amp;nbsp;printTimeDuration: string&lt;/p&gt;&lt;hr size=&quot;1&quot;&gt;&lt;p style=&quot;margin: 0px ; margin-left: 4px&quot;&gt;+ verifyLogin(): User&lt;/p&gt;&lt;p style=&quot;margin: 0px ; margin-left: 4px&quot;&gt;+&amp;nbsp;login(): User&lt;/p&gt;&lt;p style=&quot;margin: 0px ; margin-left: 4px&quot;&gt;+&amp;nbsp;logout(): boolean&lt;/p&gt;&lt;p style=&quot;margin: 0px ; margin-left: 4px&quot;&gt;+&amp;nbsp;createUser(): User&lt;/p&gt;&lt;p style=&quot;margin: 0px ; margin-left: 4px&quot;&gt;+&amp;nbsp;forgotPassword(): boolean&lt;/p&gt;&lt;p style=&quot;margin: 0px ; margin-left: 4px&quot;&gt;+&amp;nbsp;setPassword(): boolean&lt;/p&gt;&lt;p style=&quot;margin: 0px ; margin-left: 4px&quot;&gt;+&amp;nbsp;queryOptIn(): boolean&lt;/p&gt;&lt;p style=&quot;margin: 0px ; margin-left: 4px&quot;&gt;+&amp;nbsp;updateUserInfos(): boolean&lt;/p&gt;&lt;p style=&quot;margin: 0px ; margin-left: 4px&quot;&gt;+&amp;nbsp;hasElopage(): boolean&lt;/p&gt;&lt;p style=&quot;margin: 0px ; margin-left: 4px&quot;&gt;+&amp;nbsp;searchAdminUsers():&amp;nbsp;SearchAdminUsersResult&lt;/p&gt;" style="verticalAlign=top;align=left;overflow=fill;fontSize=12;fontFamily=Helvetica;html=1;" parent="1" vertex="1">
                    <mxGeometry x="456.25" y="290" width="285" height="240" as="geometry"/>
                </mxCell>
                <mxCell id="203" style="edgeStyle=none;html=1;entryX=0.5;entryY=0;entryDx=0;entryDy=0;" parent="1" source="199" target="202" edge="1">
                    <mxGeometry relative="1" as="geometry"/>
                </mxCell>
                <mxCell id="199" value="&lt;p style=&quot;margin: 0px ; margin-top: 4px ; text-align: center&quot;&gt;&lt;b&gt;TransactionResolver&lt;/b&gt;&lt;/p&gt;&lt;hr size=&quot;1&quot;&gt;&lt;p style=&quot;margin: 0px ; margin-left: 4px&quot;&gt;+ executeTransaction: boolean&lt;/p&gt;&lt;hr size=&quot;1&quot;&gt;&lt;p style=&quot;margin: 0px ; margin-left: 4px&quot;&gt;+ sendCoins(): boolean&lt;/p&gt;&lt;p style=&quot;margin: 0px ; margin-left: 4px&quot;&gt;+&amp;nbsp;transactionList():&amp;nbsp;TransactionList&lt;/p&gt;" style="verticalAlign=top;align=left;overflow=fill;fontSize=12;fontFamily=Helvetica;html=1;" parent="1" vertex="1">
                    <mxGeometry x="800" y="90" width="285" height="100" as="geometry"/>
                </mxCell>
                <mxCell id="200" style="edgeStyle=none;html=1;entryX=0.007;entryY=0.35;entryDx=0;entryDy=0;entryPerimeter=0;" parent="1" source="201" target="199" edge="1">
                    <mxGeometry relative="1" as="geometry"/>
                </mxCell>
                <mxCell id="201" value="&lt;p style=&quot;margin: 0px ; margin-top: 4px ; text-align: center&quot;&gt;&lt;b&gt;TransactionLinkResolver&lt;/b&gt;&lt;/p&gt;&lt;hr size=&quot;1&quot;&gt;&lt;p style=&quot;margin: 0px ; margin-left: 4px&quot;&gt;+&amp;nbsp;transactionLinkCode: string&lt;/p&gt;&lt;p style=&quot;margin: 0px ; margin-left: 4px&quot;&gt;+&amp;nbsp;transactionLinkExpireDate: Date&lt;/p&gt;&lt;hr size=&quot;1&quot;&gt;&lt;p style=&quot;margin: 0px ; margin-left: 4px&quot;&gt;+ createTransactionLink(): TransactionLink&lt;/p&gt;&lt;p style=&quot;margin: 0px ; margin-left: 4px&quot;&gt;+&amp;nbsp;deleteTransactionLink(): boolean&lt;/p&gt;&lt;p style=&quot;margin: 0px ; margin-left: 4px&quot;&gt;+&amp;nbsp;listTransactionLinks():&amp;nbsp;TransactionLink[]&lt;/p&gt;&lt;p style=&quot;margin: 0px ; margin-left: 4px&quot;&gt;+&amp;nbsp;queryTransactionLink():&amp;nbsp;typeof QueryLinkResult&lt;/p&gt;&lt;p style=&quot;margin: 0px ; margin-left: 4px&quot;&gt;+&amp;nbsp;redeemTransactionLink(): boolean&lt;/p&gt;" style="verticalAlign=top;align=left;overflow=fill;fontSize=12;fontFamily=Helvetica;html=1;" parent="1" vertex="1">
                    <mxGeometry x="460" y="100" width="285" height="160" as="geometry"/>
                </mxCell>
                <mxCell id="211" style="edgeStyle=none;html=1;entryX=0;entryY=0.75;entryDx=0;entryDy=0;exitX=0.25;exitY=1;exitDx=0;exitDy=0;" parent="1" source="202" target="206" edge="1">
                    <mxGeometry relative="1" as="geometry"/>
                </mxCell>
                <mxCell id="202" value="&lt;p style=&quot;margin: 0px ; margin-top: 4px ; text-align: center&quot;&gt;&lt;b&gt;BalanceResolver&lt;/b&gt;&lt;/p&gt;&lt;hr size=&quot;1&quot;&gt;&lt;p style=&quot;margin: 0px ; margin-left: 4px&quot;&gt;&lt;br&gt;&lt;/p&gt;&lt;hr size=&quot;1&quot;&gt;&lt;p style=&quot;margin: 0px ; margin-left: 4px&quot;&gt;+ balance(): Balance&lt;/p&gt;" style="verticalAlign=top;align=left;overflow=fill;fontSize=12;fontFamily=Helvetica;html=1;" parent="1" vertex="1">
                    <mxGeometry x="775" y="230" width="180" height="90" as="geometry"/>
                </mxCell>
                <mxCell id="204" value="&lt;p style=&quot;margin: 0px ; margin-top: 4px ; text-align: center&quot;&gt;&lt;b&gt;StatisticsResolver&lt;/b&gt;&lt;/p&gt;&lt;hr size=&quot;1&quot;&gt;&lt;p style=&quot;margin: 0px ; margin-left: 4px&quot;&gt;&lt;br&gt;&lt;/p&gt;&lt;hr size=&quot;1&quot;&gt;&lt;p style=&quot;margin: 0px ; margin-left: 4px&quot;&gt;+ communityStatistics(): CommunityStatistics&lt;/p&gt;" style="verticalAlign=top;align=left;overflow=fill;fontSize=12;fontFamily=Helvetica;html=1;" parent="1" vertex="1">
                    <mxGeometry x="297.5" y="580" width="265" height="90" as="geometry"/>
                </mxCell>
                <mxCell id="205" value="&lt;p style=&quot;margin: 0px ; margin-top: 4px ; text-align: center&quot;&gt;&lt;b&gt;KlicktippResolver&lt;/b&gt;&lt;/p&gt;&lt;hr size=&quot;1&quot;&gt;&lt;p style=&quot;margin: 0px ; margin-left: 4px&quot;&gt;&lt;br&gt;&lt;/p&gt;&lt;hr size=&quot;1&quot;&gt;&lt;p style=&quot;margin: 0px ; margin-left: 4px&quot;&gt;+ getKlicktippTagMap(): string&lt;/p&gt;&lt;p style=&quot;margin: 0px ; margin-left: 4px&quot;&gt;+&amp;nbsp;getKlicktippUser(): string&lt;/p&gt;&lt;p style=&quot;margin: 0px ; margin-left: 4px&quot;&gt;+&amp;nbsp;unsubscribeNewsletter(): boolean&lt;/p&gt;&lt;p style=&quot;margin: 0px ; margin-left: 4px&quot;&gt;+&amp;nbsp;subscribeNewsletter():&amp;nbsp;boolean&lt;/p&gt;" style="verticalAlign=top;align=left;overflow=fill;fontSize=12;fontFamily=Helvetica;html=1;" parent="1" vertex="1">
                    <mxGeometry x="65" y="430" width="215" height="130" as="geometry"/>
                </mxCell>
                <mxCell id="206" value="&lt;p style=&quot;margin: 0px ; margin-top: 4px ; text-align: center&quot;&gt;&lt;b&gt;GdtResolver&lt;/b&gt;&lt;/p&gt;&lt;hr size=&quot;1&quot;&gt;&lt;p style=&quot;margin: 0px ; margin-left: 4px&quot;&gt;&lt;br&gt;&lt;/p&gt;&lt;hr size=&quot;1&quot;&gt;&lt;p style=&quot;margin: 0px ; margin-left: 4px&quot;&gt;+ existPid(): number&lt;/p&gt;&lt;p style=&quot;margin: 0px ; margin-left: 4px&quot;&gt;+&amp;nbsp;gdtBalance():&amp;nbsp;number | null&lt;/p&gt;&lt;p style=&quot;margin: 0px ; margin-left: 4px&quot;&gt;+&amp;nbsp;listGDTEntries():&amp;nbsp;GdtEntryList&lt;/p&gt;" style="verticalAlign=top;align=left;overflow=fill;fontSize=12;fontFamily=Helvetica;html=1;" parent="1" vertex="1">
                    <mxGeometry x="850" y="355" width="190" height="110" as="geometry"/>
                </mxCell>
                <mxCell id="207" value="&lt;p style=&quot;margin: 0px ; margin-top: 4px ; text-align: center&quot;&gt;&lt;b&gt;ContributionMessageResolver&lt;/b&gt;&lt;/p&gt;&lt;hr size=&quot;1&quot;&gt;&lt;p style=&quot;margin: 0px ; margin-left: 4px&quot;&gt;&lt;br&gt;&lt;/p&gt;&lt;hr size=&quot;1&quot;&gt;&lt;p style=&quot;margin: 0px ; margin-left: 4px&quot;&gt;+ createContributionMessage():&amp;nbsp;ContributionMessage&lt;/p&gt;&lt;p style=&quot;margin: 0px ; margin-left: 4px&quot;&gt;&lt;span&gt;+ getCommunityInfo(): ContributionMessageListResult&lt;/span&gt;&lt;/p&gt;" style="verticalAlign=top;align=left;overflow=fill;fontSize=12;fontFamily=Helvetica;html=1;" parent="1" vertex="1">
                    <mxGeometry x="897.5" y="490" width="307.5" height="100" as="geometry"/>
                </mxCell>
                <mxCell id="208" style="edgeStyle=none;html=1;entryX=0;entryY=0.75;entryDx=0;entryDy=0;exitX=1;exitY=0.75;exitDx=0;exitDy=0;" parent="1" source="209" target="207" edge="1">
                    <mxGeometry relative="1" as="geometry"/>
                </mxCell>
                <mxCell id="209" value="&lt;p style=&quot;margin: 0px ; margin-top: 4px ; text-align: center&quot;&gt;&lt;b&gt;ContributionResolver&lt;/b&gt;&lt;/p&gt;&lt;hr size=&quot;1&quot;&gt;&lt;p style=&quot;margin: 0px ; margin-left: 4px&quot;&gt;&lt;br&gt;&lt;/p&gt;&lt;hr size=&quot;1&quot;&gt;&lt;p style=&quot;margin: 0px ; margin-left: 4px&quot;&gt;+ createContribution():&amp;nbsp;UnconfirmedContribution&lt;/p&gt;&lt;p style=&quot;margin: 0px ; margin-left: 4px&quot;&gt;&lt;span&gt;+ deleteContribution(): boolean&lt;/span&gt;&lt;/p&gt;&lt;p style=&quot;margin: 0px ; margin-left: 4px&quot;&gt;&lt;span&gt;+ deleteContribution(): ContributionListResult&lt;/span&gt;&lt;/p&gt;&lt;p style=&quot;margin: 0px ; margin-left: 4px&quot;&gt;&lt;span&gt;+ listContributions(): ContributionListResult&lt;/span&gt;&lt;/p&gt;&lt;p style=&quot;margin: 0px ; margin-left: 4px&quot;&gt;&lt;span&gt;+ updateContribution(): UnconfirmedContribution&lt;/span&gt;&lt;/p&gt;" style="verticalAlign=top;align=left;overflow=fill;fontSize=12;fontFamily=Helvetica;html=1;" parent="1" vertex="1">
                    <mxGeometry x="586.13" y="540" width="274" height="140" as="geometry"/>
                </mxCell>
                <mxCell id="210" value="&lt;p style=&quot;margin: 0px ; margin-top: 4px ; text-align: center&quot;&gt;&lt;b&gt;CommunityResolver&lt;/b&gt;&lt;/p&gt;&lt;hr size=&quot;1&quot;&gt;&lt;p style=&quot;margin: 0px ; margin-left: 4px&quot;&gt;&lt;br&gt;&lt;/p&gt;&lt;hr size=&quot;1&quot;&gt;&lt;p style=&quot;margin: 0px ; margin-left: 4px&quot;&gt;+ communities():&amp;nbsp;Community[]&lt;/p&gt;&lt;p style=&quot;margin: 0px ; margin-left: 4px&quot;&gt;&lt;span&gt;+ getCommunityInfo(): Community&lt;/span&gt;&lt;/p&gt;" style="verticalAlign=top;align=left;overflow=fill;fontSize=12;fontFamily=Helvetica;html=1;" parent="1" vertex="1">
                    <mxGeometry x="65" y="580" width="215" height="100" as="geometry"/>
                </mxCell>
                <mxCell id="215" value="" style="shape=cylinder3;whiteSpace=wrap;html=1;boundedLbl=1;backgroundOutline=1;size=15;fillColor=#60a917;fontColor=#ffffff;strokeColor=#2D7600;" parent="1" vertex="1">
                    <mxGeometry x="490" y="1654" width="900" height="116" as="geometry"/>
                </mxCell>
                <mxCell id="222" value="&lt;div style=&quot;box-sizing: border-box; width: 100%; background-image: initial; background-position: initial; background-size: initial; background-repeat: initial; background-attachment: initial; background-origin: initial; background-clip: initial; padding: 2px;&quot;&gt;&lt;span style=&quot;font-weight: 700; text-align: center;&quot;&gt;contribution_links&lt;/span&gt;&lt;br&gt;&lt;/div&gt;" style="verticalAlign=top;align=left;overflow=fill;html=1;labelBackgroundColor=#E6E6E6;" parent="1" vertex="1">
                    <mxGeometry x="510" y="1700" width="117.5" height="33" as="geometry"/>
                </mxCell>
                <mxCell id="223" value="&lt;div style=&quot;box-sizing: border-box; width: 100%; background-image: initial; background-position: initial; background-size: initial; background-repeat: initial; background-attachment: initial; background-origin: initial; background-clip: initial; padding: 2px;&quot;&gt;&lt;span style=&quot;font-weight: 700; text-align: center;&quot;&gt;contribution_messages&lt;/span&gt;&lt;br&gt;&lt;/div&gt;" style="verticalAlign=top;align=left;overflow=fill;html=1;labelBackgroundColor=#E6E6E6;" parent="1" vertex="1">
                    <mxGeometry x="640" y="1700" width="142.5" height="33" as="geometry"/>
                </mxCell>
                <mxCell id="224" value="&lt;div style=&quot;box-sizing: border-box; width: 100%; background-image: initial; background-position: initial; background-size: initial; background-repeat: initial; background-attachment: initial; background-origin: initial; background-clip: initial; padding: 2px;&quot;&gt;&lt;span style=&quot;font-weight: 700; text-align: center;&quot;&gt;contributions&lt;/span&gt;&lt;br&gt;&lt;/div&gt;" style="verticalAlign=top;align=left;overflow=fill;html=1;labelBackgroundColor=#E6E6E6;" parent="1" vertex="1">
                    <mxGeometry x="795" y="1700" width="90" height="33" as="geometry"/>
                </mxCell>
                <mxCell id="225" value="&lt;div style=&quot;box-sizing: border-box; width: 100%; background-image: initial; background-position: initial; background-size: initial; background-repeat: initial; background-attachment: initial; background-origin: initial; background-clip: initial; padding: 2px;&quot;&gt;&lt;span style=&quot;font-weight: 700; text-align: center;&quot;&gt;event_protocol&lt;/span&gt;&lt;br&gt;&lt;/div&gt;" style="verticalAlign=top;align=left;overflow=fill;html=1;labelBackgroundColor=#E6E6E6;" parent="1" vertex="1">
                    <mxGeometry x="895" y="1700" width="100" height="33" as="geometry"/>
                </mxCell>
                <mxCell id="227" value="&lt;div style=&quot;box-sizing: border-box; width: 100%; background-image: initial; background-position: initial; background-size: initial; background-repeat: initial; background-attachment: initial; background-origin: initial; background-clip: initial; padding: 2px;&quot;&gt;&lt;span style=&quot;font-weight: 700; text-align: center;&quot;&gt;transaction_links&lt;/span&gt;&lt;br&gt;&lt;/div&gt;" style="verticalAlign=top;align=left;overflow=fill;html=1;labelBackgroundColor=#E6E6E6;" parent="1" vertex="1">
                    <mxGeometry x="1005" y="1700" width="110" height="33" as="geometry"/>
                </mxCell>
                <mxCell id="228" value="&lt;div style=&quot;box-sizing: border-box; width: 100%; background-image: initial; background-position: initial; background-size: initial; background-repeat: initial; background-attachment: initial; background-origin: initial; background-clip: initial; padding: 2px;&quot;&gt;&lt;span style=&quot;font-weight: 700; text-align: center;&quot;&gt;transactions&lt;/span&gt;&lt;br&gt;&lt;/div&gt;" style="verticalAlign=top;align=left;overflow=fill;html=1;labelBackgroundColor=#E6E6E6;" parent="1" vertex="1">
                    <mxGeometry x="1121.25" y="1700" width="83.75" height="33" as="geometry"/>
                </mxCell>
                <mxCell id="229" value="&lt;div style=&quot;box-sizing: border-box; width: 100%; background-image: initial; background-position: initial; background-size: initial; background-repeat: initial; background-attachment: initial; background-origin: initial; background-clip: initial; padding: 2px;&quot;&gt;&lt;span style=&quot;font-weight: 700; text-align: center;&quot;&gt;users&lt;/span&gt;&lt;br&gt;&lt;/div&gt;" style="verticalAlign=top;align=left;overflow=fill;html=1;labelBackgroundColor=#E6E6E6;" parent="1" vertex="1">
                    <mxGeometry x="1211.25" y="1700" width="53.75" height="33" as="geometry"/>
                </mxCell>
                <mxCell id="246" style="edgeStyle=none;html=1;entryX=0.5;entryY=0;entryDx=0;entryDy=0;startArrow=classic;startFill=1;" edge="1" parent="1" source="230" target="225">
                    <mxGeometry relative="1" as="geometry"/>
                </mxCell>
                <mxCell id="230" value="EventProtocol" style="html=1;fillColor=#dae8fc;gradientColor=#7ea6e0;strokeColor=#6c8ebf;" parent="1" vertex="1">
                    <mxGeometry x="895" y="1541.75" width="90" height="30" as="geometry"/>
                </mxCell>
                <mxCell id="231" value="&lt;div style=&quot;box-sizing: border-box; width: 100%; background-image: initial; background-position: initial; background-size: initial; background-repeat: initial; background-attachment: initial; background-origin: initial; background-clip: initial; padding: 2px;&quot;&gt;&lt;span style=&quot;font-weight: 700; text-align: center;&quot;&gt;user_contacts&lt;/span&gt;&lt;br&gt;&lt;/div&gt;" style="verticalAlign=top;align=left;overflow=fill;html=1;labelBackgroundColor=#E6E6E6;" parent="1" vertex="1">
                    <mxGeometry x="1270" y="1700" width="100" height="33" as="geometry"/>
                </mxCell>
                <mxCell id="232" value="UserContact" style="html=1;fillColor=#dae8fc;gradientColor=#7ea6e0;strokeColor=#6c8ebf;" parent="1" vertex="1">
                    <mxGeometry x="1270" y="1541.75" width="100" height="30" as="geometry"/>
                </mxCell>
                <mxCell id="269" style="edgeStyle=none;html=1;startArrow=classic;startFill=1;exitX=0.495;exitY=1.006;exitDx=0;exitDy=0;entryX=0.284;entryY=-0.003;entryDx=0;entryDy=0;entryPerimeter=0;exitPerimeter=0;" edge="1" parent="1" source="234" target="214">
                    <mxGeometry relative="1" as="geometry">
                        <mxPoint x="950" y="1320" as="sourcePoint"/>
                        <mxPoint x="954" y="1484" as="targetPoint"/>
                    </mxGeometry>
                </mxCell>
                <mxCell id="270" style="edgeStyle=none;html=1;entryX=0;entryY=0;entryDx=170.31;entryDy=14;entryPerimeter=0;startArrow=classic;startFill=1;exitX=0.826;exitY=0.994;exitDx=0;exitDy=0;exitPerimeter=0;" edge="1" parent="1" source="234" target="79">
                    <mxGeometry relative="1" as="geometry"/>
                </mxCell>
                <mxCell id="234" value="dao" style="shape=folder;fontStyle=1;spacingTop=10;tabWidth=40;tabHeight=14;tabPosition=left;html=1;align=left;verticalAlign=top;fillColor=#f5f5f5;gradientColor=#b3b3b3;strokeColor=#666666;fontSize=16;" parent="1" vertex="1">
                    <mxGeometry x="70" y="1240" width="1320" height="80.5" as="geometry"/>
                </mxCell>
                <mxCell id="235" value="Transaction&lt;br&gt;DAO" style="html=1;fillColor=#dae8fc;gradientColor=#7ea6e0;strokeColor=#6c8ebf;" parent="1" vertex="1">
                    <mxGeometry x="1125" y="1279.5" width="80" height="30" as="geometry"/>
                </mxCell>
                <mxCell id="236" value="Contribution&lt;br&gt;LinkDAO" style="html=1;fillColor=#dae8fc;gradientColor=#7ea6e0;strokeColor=#6c8ebf;" parent="1" vertex="1">
                    <mxGeometry x="510" y="1279.5" width="115" height="30" as="geometry"/>
                </mxCell>
                <mxCell id="237" value="Transaction&lt;br&gt;LinkDAO" style="html=1;fillColor=#dae8fc;gradientColor=#7ea6e0;strokeColor=#6c8ebf;" parent="1" vertex="1">
                    <mxGeometry x="995" y="1279.5" width="120" height="30" as="geometry"/>
                </mxCell>
                <mxCell id="238" value="ContributionDAO" style="html=1;fillColor=#dae8fc;gradientColor=#7ea6e0;strokeColor=#6c8ebf;" parent="1" vertex="1">
                    <mxGeometry x="795" y="1279.5" width="90" height="30" as="geometry"/>
                </mxCell>
                <mxCell id="239" value="User&lt;br&gt;DAO" style="html=1;fillColor=#dae8fc;gradientColor=#7ea6e0;strokeColor=#6c8ebf;" parent="1" vertex="1">
                    <mxGeometry x="1211.25" y="1279.5" width="53.75" height="30" as="geometry"/>
                </mxCell>
                <mxCell id="240" value="Contribution&lt;br&gt;MessageDAO" style="html=1;fillColor=#dae8fc;gradientColor=#7ea6e0;strokeColor=#6c8ebf;" parent="1" vertex="1">
                    <mxGeometry x="635.63" y="1279.5" width="151.25" height="30" as="geometry"/>
                </mxCell>
                <mxCell id="241" value="Event&lt;br&gt;ProtocolDAO" style="html=1;fillColor=#dae8fc;gradientColor=#7ea6e0;strokeColor=#6c8ebf;" parent="1" vertex="1">
                    <mxGeometry x="895" y="1279.5" width="90" height="30" as="geometry"/>
                </mxCell>
                <mxCell id="242" value="User&lt;br&gt;ContactDAO" style="html=1;fillColor=#dae8fc;gradientColor=#7ea6e0;strokeColor=#6c8ebf;" parent="1" vertex="1">
                    <mxGeometry x="1270" y="1279.5" width="100" height="30" as="geometry"/>
                </mxCell>
                <mxCell id="243" style="edgeStyle=none;html=1;entryX=0.5;entryY=0;entryDx=0;entryDy=0;startArrow=classic;startFill=1;" edge="1" parent="1" source="88" target="222">
                    <mxGeometry relative="1" as="geometry"/>
                </mxCell>
                <mxCell id="248" style="edgeStyle=none;html=1;entryX=0.5;entryY=0;entryDx=0;entryDy=0;startArrow=classic;startFill=1;" edge="1" parent="1" source="87" target="228">
                    <mxGeometry relative="1" as="geometry"/>
                </mxCell>
                <mxCell id="247" style="edgeStyle=none;html=1;startArrow=classic;startFill=1;" edge="1" parent="1" source="89" target="227">
                    <mxGeometry relative="1" as="geometry"/>
                </mxCell>
                <mxCell id="245" style="edgeStyle=none;html=1;entryX=0.5;entryY=0;entryDx=0;entryDy=0;startArrow=classic;startFill=1;" edge="1" parent="1" source="93" target="224">
                    <mxGeometry relative="1" as="geometry"/>
                </mxCell>
                <mxCell id="249" style="edgeStyle=none;html=1;entryX=0.5;entryY=0;entryDx=0;entryDy=0;startArrow=classic;startFill=1;" edge="1" parent="1" source="96" target="229">
                    <mxGeometry relative="1" as="geometry"/>
                </mxCell>
                <mxCell id="244" style="edgeStyle=none;html=1;entryX=0.5;entryY=0;entryDx=0;entryDy=0;startArrow=classic;startFill=1;" edge="1" parent="1" source="112" target="223">
                    <mxGeometry relative="1" as="geometry"/>
                </mxCell>
                <mxCell id="250" style="edgeStyle=none;html=1;entryX=0.5;entryY=0;entryDx=0;entryDy=0;startArrow=classic;startFill=1;" edge="1" parent="1" source="232" target="231">
                    <mxGeometry relative="1" as="geometry"/>
                </mxCell>
                <mxCell id="274" style="edgeStyle=none;html=1;entryX=0;entryY=0;entryDx=67.5;entryDy=14;entryPerimeter=0;startArrow=classic;startFill=1;exitX=0.1;exitY=0.994;exitDx=0;exitDy=0;exitPerimeter=0;" edge="1" parent="1" source="234" target="172">
                    <mxGeometry relative="1" as="geometry"/>
                </mxCell>
                <mxCell id="272" style="edgeStyle=none;html=1;entryX=0;entryY=0;entryDx=55;entryDy=14;entryPerimeter=0;startArrow=classic;startFill=1;exitX=0.258;exitY=0.994;exitDx=0;exitDy=0;exitPerimeter=0;" edge="1" parent="1" source="234" target="116">
                    <mxGeometry relative="1" as="geometry"/>
                </mxCell>
                <mxCell id="273" style="edgeStyle=none;html=1;entryX=0;entryY=0;entryDx=58.75;entryDy=14;entryPerimeter=0;startArrow=classic;startFill=1;exitX=0.173;exitY=1.031;exitDx=0;exitDy=0;exitPerimeter=0;" edge="1" parent="1" source="234" target="170">
                    <mxGeometry relative="1" as="geometry"/>
                </mxCell>
                <mxCell id="275" style="edgeStyle=none;html=1;entryX=0;entryY=0;entryDx=54.375;entryDy=14;entryPerimeter=0;startArrow=classic;startFill=1;exitX=0.031;exitY=1.019;exitDx=0;exitDy=0;exitPerimeter=0;" edge="1" parent="1" source="234" target="125">
                    <mxGeometry relative="1" as="geometry"/>
                </mxCell>
                <mxCell id="281" style="edgeStyle=none;html=1;entryX=0.515;entryY=1;entryDx=0;entryDy=0;fontSize=16;startArrow=classic;startFill=1;entryPerimeter=0;exitX=0.429;exitY=0.001;exitDx=0;exitDy=0;exitPerimeter=0;" edge="1" parent="1" source="213" target="280">
                    <mxGeometry relative="1" as="geometry">
                        <mxPoint x="648" y="1190" as="sourcePoint"/>
                    </mxGeometry>
                </mxCell>
                <mxCell id="287" style="edgeStyle=none;html=1;entryX=0.957;entryY=-0.003;entryDx=0;entryDy=0;entryPerimeter=0;fontSize=16;startArrow=classic;startFill=1;exitX=0.75;exitY=1;exitDx=0;exitDy=0;" edge="1" parent="1" source="286" target="213">
                    <mxGeometry relative="1" as="geometry"/>
                </mxCell>
                <mxCell id="288" style="edgeStyle=none;html=1;entryX=0.917;entryY=0;entryDx=0;entryDy=0;entryPerimeter=0;fontSize=16;startArrow=classic;startFill=1;" edge="1" parent="1" source="286" target="279">
                    <mxGeometry relative="1" as="geometry"/>
                </mxCell>
                <mxCell id="286" value="&amp;nbsp; &amp;nbsp;Community-Resolver-Layer" style="rounded=1;whiteSpace=wrap;html=1;fillColor=#f5f5f5;strokeColor=#666666;arcSize=10;fontColor=#333333;align=left;fontStyle=1;verticalAlign=top;fontSize=16;" vertex="1" parent="1">
                    <mxGeometry x="1230" y="80" width="240" height="610" as="geometry"/>
                </mxCell>
            </root>
        </mxGraphModel>
    </diagram>
</mxfile>